<?xml version="1.0" encoding="UTF-8"?>
<svg width="13px" height="12px" viewBox="0 0 13 12" version="1.1" xmlns="http://www.w3.org/2000/svg" xmlns:xlink="http://www.w3.org/1999/xlink">
    <title>microsoft-excel</title>
    <g id="Symbols" stroke="none" stroke-width="1" fill="none" fill-rule="evenodd">
        <g id="-Files-/-Overrides-/-Excel" transform="translate(-1.000000, -1.000000)" fill-rule="nonzero">
            <g id="microsoft-excel" transform="translate(1.000000, 1.000000)">
                <g id="Group" fill="#4CAF50">
                    <path d="M7.18673171,0.0735121951 C7.125,0.0233658537 7.04373171,0.00419512195 6.96612195,0.0214878049 L0.201902439,1.58246341 C0.0828536585,1.60982927 -0.00114634146,1.71631707 -1.15903878e-05,1.83846341 L-1.15903878e-05,10.684 C-1.15903878e-05,10.8123659 0.0937317073,10.9215366 0.220609756,10.9410488 L6.98482927,11.9817073 C7.12685366,12.0035366 7.25968293,11.906122 7.2815122,11.764122 C7.2835122,11.7510732 7.28453782,11.737878 7.28453782,11.7246829 L7.28453782,0.277487805 C7.28478049,0.198146341 7.2487561,0.12304878 7.18673171,0.0735121951 Z" id="Path"></path>
                    <path d="M12.2276585,10.9441463 L7.02439024,10.9441463 C6.88070732,10.9441463 6.76421951,10.8276585 6.76421951,10.6839756 C6.76421951,10.5402927 6.88070732,10.4238049 7.02439024,10.4238049 L11.9674878,10.4238049 L11.9674878,1.57829268 L7.02439024,1.57829268 C6.88070732,1.57829268 6.76421951,1.46180488 6.76421951,1.31812195 C6.76421951,1.17443902 6.88070732,1.05797561 7.02439024,1.05797561 L12.2276341,1.05797561 C12.3713171,1.05797561 12.4878049,1.17446341 12.4878049,1.31814634 L12.4878049,10.684 C12.4878049,10.8276829 12.3713415,10.9441463 12.2276585,10.9441463 Z" id="Path"></path>
                </g>
                <g id="Group" transform="translate(2.073171, 3.634146)" fill="#FAFAFA">
                    <path d="M2.86992683,4.70839024 C2.78021951,4.70839024 2.69685366,4.66217073 2.64931707,4.58612195 L0.0476829268,0.423512195 C-0.0322926829,0.304146341 -0.000341463415,0.142536585 0.11902439,0.0625609756 C0.238390244,-0.0174146341 0.4,0.0145365854 0.47997561,0.133902439 C0.483121951,0.138585366 0.486097561,0.143365854 0.488926829,0.148243902 L3.09056098,4.31085366 C3.16641463,4.43287805 3.129,4.59329268 3.00697561,4.66917073 C2.96582927,4.69473171 2.91836585,4.70831707 2.86992683,4.70839024 Z" id="Path"></path>
                    <path d="M0.268292683,4.70839033 C0.124609756,4.70809756 0.00836585366,4.59139024 0.0086579851,4.44770732 C0.00875609756,4.39912195 0.0224634146,4.35153659 0.048195122,4.31034146 L2.64982927,0.147731707 C2.72187805,0.0234146341 2.88107317,-0.0189512195 3.00536585,0.053097561 C3.12968293,0.125146341 3.17204878,0.284341463 3.1,0.408634146 C3.09717073,0.413512195 3.09419512,0.418292683 3.09104878,0.42297561 L0.489439024,4.58558537 C0.441926829,4.662 0.358292683,4.70846341 0.268292683,4.70839033 Z" id="Path"></path>
                </g>
                <g id="Group" transform="translate(6.756098, 1.048780)" fill="#4CAF50">
                    <path d="M2.34960976,9.89536585 C2.20592683,9.89536585 2.08943902,9.77887805 2.08943902,9.63519512 L2.08943902,0.269341463 C2.08943902,0.125658537 2.20592683,0.00917073171 2.34960976,0.00917073171 C2.49329268,0.00917073171 2.60978049,0.125658537 2.60978049,0.269341463 L2.60978049,9.63519512 C2.6097561,9.77890244 2.49329268,9.89536585 2.34960976,9.89536585 Z" id="Path"></path>
                    <path d="M5.47156098,8.33439024 L0.268292683,8.33439024 C0.124609756,8.33439024 0.00812195122,8.21790244 0.00812195122,8.07421951 C0.00812195122,7.93053659 0.124609756,7.81404878 0.268292683,7.81404878 L5.47153659,7.81404878 C5.61521951,7.81404878 5.73170732,7.93053659 5.73170732,8.07421951 C5.73170732,8.21792683 5.6152439,8.33439024 5.47156098,8.33439024 Z" id="Path"></path>
                    <path d="M5.47156098,6.77341463 L0.268292683,6.77341463 C0.124609756,6.77341463 0.00812195122,6.65692683 0.00812195122,6.5132439 C0.00812195122,6.36956098 0.124609756,6.25307317 0.268292683,6.25307317 L5.47153659,6.25307317 C5.61521951,6.25307317 5.73170732,6.36956098 5.73170732,6.5132439 C5.73170732,6.65695122 5.6152439,6.77341463 5.47156098,6.77341463 Z" id="Path"></path>
                    <path d="M5.47156098,5.21243902 L0.268292683,5.21243902 C0.124609756,5.21243902 0.00812195122,5.09595122 0.00812195122,4.95226829 C0.00812195122,4.80858537 0.124609756,4.69209756 0.268292683,4.69209756 L5.47153659,4.69209756 C5.61521951,4.69209756 5.73170732,4.80858537 5.73170732,4.95226829 C5.73170732,5.09597561 5.6152439,5.21243902 5.47156098,5.21243902 Z" id="Path"></path>
                    <path d="M5.47156098,3.65146341 L0.268292683,3.65146341 C0.124609756,3.65146341 0.00812195122,3.53497561 0.00812195122,3.39129268 C0.00812195122,3.24760976 0.124609756,3.13112195 0.268292683,3.13112195 L5.47153659,3.13112195 C5.61521951,3.13112195 5.73170732,3.24760976 5.73170732,3.39129268 C5.73170732,3.53497561 5.6152439,3.65146341 5.47156098,3.65146341 Z" id="Path"></path>
                    <path d="M5.47156098,2.0904878 L0.268292683,2.0904878 C0.124609756,2.0904878 0.00812195122,1.974 0.00812195122,1.83031707 C0.00812195122,1.68663415 0.124609756,1.57014634 0.268292683,1.57014634 L5.47153659,1.57014634 C5.61521951,1.57014634 5.73170732,1.68663415 5.73170732,1.83031707 C5.73170732,1.97402439 5.6152439,2.0904878 5.47156098,2.0904878 Z" id="Path"></path>
                </g>
            </g>
        </g>
    </g>
</svg>