<?xml version="1.0" encoding="UTF-8"?>
<svg width="35px" height="25px" viewBox="0 0 35 25" version="1.1" xmlns="http://www.w3.org/2000/svg" xmlns:xlink="http://www.w3.org/1999/xlink">
    <title>mastercard-bg</title>
    <g id="Symbols" stroke="none" stroke-width="1" fill="none" fill-rule="evenodd">
        <g id="Cards-/-Small-/-Mastercard">
            <rect id="mastercard-bg" fill="#343A49" x="0" y="0" width="35" height="25" rx="3.31578947"></rect>
            <g id="mastercard-logo" transform="translate(6.263158, 5.597015)">
                <path d="M15.8421053,0.126959854 C19.6063618,0.126959854 22.6578947,3.21753154 22.6578947,7.02994493 C22.6578947,10.8423583 19.6063618,13.93293 15.8421053,13.93293 C14.1550872,13.93293 12.6112226,13.3121755 11.4210429,12.283891 C10.2317473,13.3118278 8.68749053,13.93293 7,13.93293 C3.23574342,13.93293 0.184210526,10.8423583 0.184210526,7.02994493 C0.184210526,3.21753154 3.23574342,0.126959854 7,0.126959854 C8.68749053,0.126959854 10.2317473,0.74806206 11.4220622,1.77686278 C12.6112226,0.747714347 14.1550872,0.126959854 15.8421053,0.126959854 Z" id="Combined-Shape" fill="#FF4D00"></path>
                <path d="M7,0.126959854 C8.68749053,0.126959854 10.2317473,0.74806206 11.4220622,1.77686278 C9.95556529,3.04213347 9.02631579,4.92613197 9.02631579,7.02994493 C9.02631579,9.13375789 9.95556529,11.0177564 11.4210429,12.283891 C10.2317473,13.3118278 8.68749053,13.93293 7,13.93293 C3.23574342,13.93293 0.184210526,10.8423583 0.184210526,7.02994493 C0.184210526,3.21753154 3.23574342,0.126959854 7,0.126959854 Z" id="Combined-Shape" fill="#FF0000"></path>
                <path d="M15.8421053,0.126959854 C19.6063618,0.126959854 22.6578947,3.21753154 22.6578947,7.02994493 C22.6578947,10.8423583 19.6063618,13.93293 15.8421053,13.93293 C14.1548438,13.93293 12.6107772,13.3119964 11.4205278,12.283446 C12.8867577,11.0173149 13.8157895,9.13351141 13.8157895,7.02994493 C13.8157895,4.92637845 12.8867577,3.04257493 11.4215775,1.77644386 C12.6107772,0.74789346 14.1548438,0.126959854 15.8421053,0.126959854 Z" id="Combined-Shape" fill="#FF9B00"></path>
            </g>
        </g>
    </g>
</svg>