<svg width="80" height="35" xmlns="http://www.w3.org/2000/svg"><g id="Logo"><g id="Group-2-Copy" transform="translate(0 18.667)"><path d="M0 0v15.467h3.346V0H0zm22.035 3.762c-1.486 0-2.806.55-3.839 1.672-1.032 1.122-1.435 2.334-1.435 4.076 0 1.742.517 3.17 1.55 4.285 1.032 1.114 2.273 1.672 3.724 1.672s2.616-.655 3.481-1.881v1.88h3.347V0h-3.347v5.225c-.795-1.1-1.995-1.463-3.48-1.463zm9.338-.418a1.62 1.62 0 01-1.188-.482 1.612 1.612 0 01-.486-1.19c0-.471.162-.868.486-1.19A1.62 1.62 0 0131.373 0c.468 0 .864.16 1.187.482.324.322.486.719.486 1.19s-.162.868-.486 1.19a1.62 1.62 0 01-1.187.482zM56.47 0h3.346v15.467H56.47L50.29 6.06v9.406h-3.44V0h3.346l6.275 10.032V0zm4.183 0v15.467H64V0h-3.346zM29.699 3.762v11.705h3.347V3.762h-3.347zM7.53 5.434V3.762H4.183v11.705h3.399V9.179c0-.747.366-1.446.747-1.733.38-.288.938-.612 1.63-.612.693 0 1.394.204 1.789.612.395.408.801.986.801 1.733v6.288h3.323V8.7c0-1.522-.412-2.725-1.236-3.61-.824-.886-2.058-1.329-3.388-1.329-1.607 0-2.984.455-3.719 1.672zm31.657-1.672c-1.486 0-2.807.55-3.84 1.672-1.032 1.122-1.434 2.334-1.434 4.076 0 1.742.516 3.17 1.548 4.285 1.033 1.114 2.275 1.672 3.726 1.672 1.45 0 2.616-.655 3.48-1.881v1.88h3.347V3.763h-3.346v1.463c-.796-1.1-1.995-1.463-3.481-1.463zm-13.64 5.842c0-.937-.296-1.657-.888-2.16a3.057 3.057 0 00-2.04-.756c-.768 0-1.448.256-2.04.766-.593.511-.889 1.235-.889 2.171 0 .936.296 1.656.889 2.16a3.057 3.057 0 002.04.755 3.03 3.03 0 002.04-.766c.592-.51.888-1.234.888-2.17zm17.12 0c0-.937-.295-1.657-.887-2.16a3.057 3.057 0 00-2.04-.756c-.768 0-1.448.256-2.04.766-.593.511-.889 1.235-.889 2.171 0 .936.296 1.656.889 2.16a3.057 3.057 0 002.04.755 3.03 3.03 0 002.04-.766c.592-.51.888-1.234.888-2.17z" id="IndiaNIC" fill="#BDD1F8" fill-rule="evenodd" stroke="none"/></g><path d="M2.245 2.186C3.742.73 5.572 0 7.735 0c1.676 0 3.166.445 4.47 1.336 1.303.89 2.213 2.125 2.728 3.705H10.55C9.977 3.935 9.06 3.382 7.8 3.382s-2.253.395-2.976 1.185c-.724.79-1.085 1.845-1.085 3.166 0 1.322.361 2.377 1.085 3.167.723.79 1.715 1.185 2.976 1.185 1.26 0 2.177-.553 2.75-1.659h4.383c-.515 1.58-1.425 2.815-2.729 3.705-1.303.89-2.793 1.336-4.469 1.336-2.163 0-3.993-.73-5.49-2.187C.748 11.823 0 9.974 0 7.733c0-2.24.748-4.089 2.245-5.547z" transform="translate(64.8 18.667)" id="C" fill="#BDD1F8" stroke="none"/><g id="Group" transform="translate(53.6)" fill="#BDD1F8" stroke="none"><path d="M0 8.762c0 4.838 3.911 8.763 8.739 8.763 4.827 0 8.738-3.925 8.738-8.763a1.78 1.78 0 10-3.562 0c0 2.874-2.319 5.2-5.176 5.2-2.858 0-5.177-2.326-5.177-5.2 0-2.873 2.319-5.2 5.177-5.2a1.781 1.781 0 100-3.562C3.91 0 0 3.924 0 8.762z" id="Oval-1"/><path d="M3.57 7.163a3.575 3.575 0 003.569-3.581A3.575 3.575 0 003.569 0 3.575 3.575 0 000 3.582a3.575 3.575 0 003.57 3.581z" transform="translate(5.17 5.18)" id="Oval-1"/></g></g></svg>