<?xml version="1.0" encoding="UTF-8"?>
<svg width="27px" height="36px" viewBox="0 0 27 36" version="1.1" xmlns="http://www.w3.org/2000/svg" xmlns:xlink="http://www.w3.org/1999/xlink">
    <!-- Generator: Sketch 52.6 (67491) - http://www.bohemiancoding.com/sketch -->
    <title> File Icon</title>
    <desc>Created with Sketch.</desc>
    <g id="🖥-UI" stroke="none" stroke-width="1" fill="none" fill-rule="evenodd">
        <g id="Import-csv" transform="translate(-387.000000, -375.000000)">
            <g id="File-1" transform="translate(319.000000, 355.000000)">
                <g id="-Files-/-Icons-/-36px" transform="translate(68.000000, 20.000000)">
                    <g id="-Files-/-Overrides-/-CSV" transform="translate(6.000000, 14.000000)" fill="#54667D" fill-rule="evenodd" stroke-width="1">
                        <g id="csv" transform="translate(2.000000, 1.000000)">
                            <path d="M9.94972678,4.28679781 L9.66198907,4.28679781 L9.66198907,2.89814208 C9.66198907,2.88942077 9.66059016,2.88076503 9.65945355,2.87191257 C9.65899454,2.8168306 9.64144262,2.76262295 9.60369399,2.71978142 L7.29302732,0.0803715847 C7.29234973,0.0796284153 7.29162842,0.0794098361 7.2911694,0.0787322404 C7.27742077,0.0632786885 7.26135519,0.0504918033 7.24437158,0.0394754098 C7.2393224,0.0360437158 7.23427322,0.0332240437 7.22898361,0.0303169399 C7.21429508,0.0223387978 7.19868852,0.0156284153 7.18262295,0.0107978142 C7.17827322,0.00966120219 7.17438251,0.00786885246 7.17003279,0.00668852459 C7.15254645,0.00257923497 7.13442623,0 7.11610929,0 L1.43731148,0 C1.17798907,0 0.967344262,0.210907104 0.967344262,0.469989071 L0.967344262,4.28666667 L0.679628415,4.28666667 C0.308655738,4.28666667 0.00786885246,4.58734426 0.00786885246,4.95836066 L0.00786885246,8.45147541 C0.00786885246,8.82231694 0.308655738,9.12330055 0.679628415,9.12330055 L0.967344262,9.12330055 L0.967344262,11.5145355 C0.967344262,11.7736393 1.17798907,11.9845027 1.43731148,11.9845027 L9.192,11.9845027 C9.45108197,11.9845027 9.66198907,11.7736393 9.66198907,11.5145355 L9.66198907,9.1233224 L9.94972678,9.1233224 C10.3205683,9.1233224 10.6213989,8.82246995 10.6213989,8.45160656 L10.6213989,4.9584918 C10.6214208,4.58736612 10.3205683,4.28679781 9.94972678,4.28679781 Z M1.43731148,0.469989071 L6.8810929,0.469989071 L6.8810929,2.8744918 C6.8810929,3.00432787 6.98640437,3.10948634 7.11608743,3.10948634 L9.192,3.10948634 L9.192,4.28677596 L1.43731148,4.28677596 L1.43731148,0.469989071 Z M4.97525683,6.84546448 C4.39208743,6.64238251 4.01213115,6.31971585 4.01213115,5.80963934 C4.01213115,5.21064481 4.51182514,4.7524153 5.33962842,4.7524153 C5.73540984,4.7524153 6.02699454,4.83571585 6.23510383,4.92961749 L6.05827322,5.57005464 C5.91772678,5.50214208 5.66784699,5.40323497 5.32406557,5.40323497 C4.98052459,5.40323497 4.8139235,5.55949727 4.8139235,5.74170492 C4.8139235,5.96568306 5.01167213,6.06452459 5.46485246,6.23639344 C6.08432787,6.46544262 6.37591257,6.78806557 6.37591257,7.28281967 C6.37591257,7.87099454 5.92299454,8.37103825 4.95969399,8.37103825 C4.55886339,8.37103825 4.16299454,8.26664481 3.96522404,8.15748634 L4.12653552,7.50139891 C4.34013115,7.61099454 4.66806557,7.72010929 5.00662295,7.72010929 C5.37101639,7.72010929 5.5637377,7.56911475 5.5637377,7.33986885 C5.56362842,7.12107104 5.39691803,6.99624044 4.97525683,6.84546448 Z M0.840961749,6.61621858 C0.840961749,5.41881967 1.69503825,4.7524153 2.75689617,4.7524153 C3.16830601,4.7524153 3.4806776,4.83571585 3.62135519,4.9086776 L3.45978142,5.53853552 C3.29846995,5.47112568 3.07438251,5.40872131 2.79331148,5.40872131 C2.1633224,5.40872131 1.67405464,5.78850273 1.67405464,6.56935519 C1.67405464,7.2722623 2.09046995,7.71471038 2.79877596,7.71471038 C3.03805464,7.71471038 3.30362842,7.66273224 3.45978142,7.60021858 L3.57962842,8.21980328 C3.43379235,8.29280874 3.10587978,8.37103825 2.6789071,8.37103825 C1.46579235,8.37106011 0.840961749,7.61582514 0.840961749,6.61621858 Z M9.192,11.3871475 L1.43731148,11.3871475 L1.43731148,9.1233224 L9.192,9.1233224 L9.192,11.3871475 Z M8.66706011,8.3187541 L7.74030601,8.3187541 L6.61571585,4.80977049 L7.48537705,4.80977049 L7.91217486,6.29379235 C8.03193443,6.71009836 8.14122404,7.11097268 8.22472131,7.54837158 L8.24021858,7.54837158 C8.32869945,7.12655738 8.4379235,6.7100765 8.55772678,6.30918033 L9.00553005,4.80977049 L9.84922404,4.80977049 L8.66706011,8.3187541 Z" id="Shape" fill-rule="nonzero"></path>
                        </g>
                    </g>
                    <path d="M21.7222,0 L27,4.99997 L27,34 C27,35.1046 26.1046,36 25,36 L2,36 C0.895431,36 0,35.1046 0,34 L0,2 C0,0.895431 0.895431,0 2,0 L21.7222,0 Z M25.546,5 L22,1.64066 L22,4 C22,4.55228 22.4477,5 23,5 L25.546,5 Z M26,34 L26,6 L23,6 C21.8954,6 21,5.10457 21,4 L21,1 L2,1 C1.44771,1 1,1.44772 1,2 L1,34 C1,34.5523 1.44771,35 2,35 L25,35 C25.5523,35 26,34.5523 26,34 Z" id="File" fill="#F2F4F4" fill-rule="nonzero"></path>
                </g>
            </g>
        </g>
    </g>
</svg>