<?xml version="1.0" encoding="UTF-8"?>
<svg width="25px" height="33px" viewBox="0 0 25 33" version="1.1" xmlns="http://www.w3.org/2000/svg" xmlns:xlink="http://www.w3.org/1999/xlink">
    <!-- Generator: Sketch 52.6 (67491) - http://www.bohemiancoding.com/sketch -->
    <title> Files / Icons / 24px</title>
    <desc>Created with Sketch.</desc>
    <g id="Symbols" stroke="none" stroke-width="1" fill="none" fill-rule="evenodd">
        <g id="FIle" transform="translate(-84.000000, -36.000000)">
            <g id="-Files-/-Icons-/-24px">
                <g transform="translate(84.000000, 36.000000)">
                    <path d="M18.0555263,0 L25,6.87495875 L25,30.25 C25,31.768825 23.8218421,33 22.3684211,33 L2.63157895,33 C1.17819868,33 0,31.768825 0,30.25 L0,2.75 C0,1.23121762 1.17819868,0 2.63157895,0 L18.0555263,0 Z M23.0868421,6.875 L18.4210526,2.2559075 L18.4210526,5.5 C18.4210526,6.259385 19.0101316,6.875 19.7368421,6.875 L23.0868421,6.875 Z M23.6842105,30.25 L23.6842105,8.25 L19.7368421,8.25 C18.2834211,8.25 17.1052632,7.01878375 17.1052632,5.5 L17.1052632,1.375 L2.63157895,1.375 C1.90488158,1.375 1.31578947,1.990615 1.31578947,2.75 L1.31578947,30.25 C1.31578947,31.0094125 1.90488158,31.625 2.63157895,31.625 L22.3684211,31.625 C23.0951316,31.625 23.6842105,31.0094125 23.6842105,30.25 Z" id="File" fill="#E7EDF3" fill-rule="evenodd"></path>
                    <g id="-Files-/-Overrides-/-PDF" transform="translate(3.947368, 9.625000)" fill="#FF3100" fill-rule="nonzero">
                        <path d="M15.7156501,11.0442885 C15.4303996,10.7431707 14.79679,10.5835962 13.8333332,10.570073 C13.1812118,10.561959 12.3961418,10.624166 11.5706823,10.7476784 C11.201287,10.5186846 10.8201116,10.2707583 10.5205564,9.97054202 C9.71613314,9.16545758 9.043817,8.04753517 8.62561785,6.81962361 C8.65254416,6.70512672 8.67610467,6.60415308 8.69798229,6.50137635 C8.69798229,6.50137635 9.15152221,3.74263233 9.0311953,2.81042929 C9.01436636,2.68240914 9.00426899,2.64544558 8.97229401,2.54627504 L8.932746,2.438089 C8.80905329,2.13336499 8.56755801,1.81060997 8.18890687,1.82864097 L7.96676487,1.82142857 L7.9600333,1.82142857 C7.53762691,1.82142857 7.19263365,2.05312701 7.10259883,2.39932233 C6.82744566,3.48478893 7.10344027,5.11298883 7.6251374,7.21269956 L7.49387167,7.55528868 C7.12615934,8.51634134 6.6650464,9.48460639 6.25778606,10.3383746 L6.2047749,10.4492653 C5.77647839,11.3463078 5.38857133,12.1090194 5.03600505,12.7536279 L4.67249996,12.9591814 C4.6464151,12.9745077 4.02290289,13.3270139 3.87649112,13.4216767 C2.63703972,14.215041 1.81578747,15.1147882 1.67947306,15.8297176 C1.63571782,16.0578099 1.66853425,16.3490106 1.88899336,16.4842432 L2.24071819,16.6735687 C2.3930201,16.7556098 2.55373647,16.7970811 2.71866008,16.7970811 C3.60133796,16.7970811 4.62622037,15.6187549 6.03900985,12.9781139 C7.66973409,12.4092357 9.52512467,11.9368233 11.1524831,11.6762753 C12.3919345,12.424562 13.9166364,12.943855 14.8792518,12.943855 C15.0500655,12.943855 15.1973187,12.9267256 15.3168042,12.8924667 C15.5010811,12.8401767 15.6567488,12.7274829 15.7518323,12.5742194 C15.9386335,12.2731016 15.9764986,11.8583884 15.9260118,11.4337582 C15.9108658,11.3075412 15.8166237,11.151573 15.7156501,11.04519 M2.52849306,16.0785455 C2.68920943,15.6070347 3.32702624,14.6748317 4.26944686,13.8472085 C4.32834814,13.7958201 4.47475992,13.6488674 4.60854999,13.5127333 C3.62321558,15.1968293 2.96352115,15.8675827 2.52933451,16.0785455 M8.1106523,2.30826575 C8.39421994,2.30826575 8.55577775,3.07458353 8.56924091,3.79311915 C8.58270406,4.51165476 8.42535347,5.0156214 8.23097922,5.38886324 C8.0694214,4.83621288 7.99200828,3.96531526 7.99200828,3.396437 C7.99200828,3.396437 7.98022802,2.30826575 8.1106523,2.30826575 M6.44542874,12.1216411 C6.64316878,11.7420884 6.84848184,11.3427016 7.05884358,10.9180714 C7.57128479,9.87948544 7.89440043,9.06718859 8.13589571,8.40004135 C8.61552049,9.33404749 9.2121064,10.1283133 9.91387318,10.7648079 C10.0013837,10.8441443 10.0939428,10.9243823 10.1915507,11.0037187 C8.76445661,11.3066396 7.53089534,11.6744722 6.44542874,12.1216411 M15.4421798,12.0350923 C15.3555108,12.0936931 15.1064425,12.1270504 14.9465675,12.1270504 C14.4299191,12.1270504 13.7904194,11.8737148 12.8934369,11.4617063 C13.2375887,11.4346598 13.5539728,11.420235 13.836699,11.420235 C14.3550303,11.420235 14.5090151,11.4175303 15.0155662,11.5563691 C15.5221173,11.6952078 15.5288489,11.9764915 15.4421798,12.0341907" id="Shape"></path>
                    </g>
                </g>
            </g>
        </g>
    </g>
</svg>