<svg width="50" height="14" xmlns="http://www.w3.org/2000/svg"><g id="🖥-UI" stroke="none" stroke-width="1" fill="none" fill-rule="evenodd"><g id="Settings---Payment-Gateway" transform="translate(-350 -526)" fill-rule="nonzero"><g id="PayPal" transform="translate(320 492)"><g id="Shape"><path d="M6.435 1.002h-3.83a.532.532 0 00-.526.45L.53 11.271a.32.32 0 00.316.369h1.829c.262 0 .485-.19.526-.45l.417-2.649a.532.532 0 01.526-.45h1.212c2.523 0 3.98-1.22 4.36-3.64.17-1.058.007-1.89-.489-2.472-.544-.64-1.51-.978-2.792-.978zm.442 3.587c-.21 1.374-1.26 1.374-2.275 1.374h-.578l.406-2.566a.32.32 0 01.315-.27h.265c.692 0 1.344 0 1.681.395.201.235.263.584.186 1.067zm11.007-.044H16.05a.32.32 0 00-.315.27l-.081.512-.129-.186c-.397-.576-1.282-.769-2.166-.769-2.027 0-3.758 1.535-4.095 3.689-.175 1.074.074 2.1.683 2.817.56.659 1.359.933 2.31.933 1.634 0 2.54-1.05 2.54-1.05l-.083.51a.32.32 0 00.315.37h1.652a.532.532 0 00.526-.45l.991-6.278a.318.318 0 00-.314-.368zm-2.556 3.57c-.177 1.047-1.009 1.75-2.07 1.75-.532 0-.958-.17-1.231-.494-.271-.321-.374-.779-.288-1.289.165-1.038 1.01-1.765 2.055-1.765.521 0 .944.173 1.223.5.28.33.39.79.31 1.297zm12.324-3.57H25.81a.534.534 0 00-.44.233l-2.542 3.745-1.078-3.599a.534.534 0 00-.51-.38h-1.812a.32.32 0 00-.303.423l2.03 5.958-1.908 2.694a.32.32 0 00.26.504h1.84a.531.531 0 00.438-.229l6.13-8.848a.32.32 0 00-.262-.501z" fill="#253B80" transform="translate(30 33)"/><path d="M33.754 1.002h-3.83a.532.532 0 00-.525.45l-1.55 9.82a.319.319 0 00.315.369h1.966a.372.372 0 00.367-.315l.44-2.784a.532.532 0 01.525-.45h1.212c2.524 0 3.98-1.22 4.36-3.64.172-1.058.007-1.89-.489-2.472-.544-.64-1.509-.978-2.79-.978zm.442 3.587c-.209 1.374-1.259 1.374-2.275 1.374h-.577l.406-2.566a.318.318 0 01.315-.27h.265c.69 0 1.344 0 1.681.395.201.235.262.584.185 1.067zm11.007-.044H43.37a.318.318 0 00-.315.27l-.081.512-.129-.186c-.397-.576-1.282-.769-2.166-.769-2.026 0-3.757 1.535-4.094 3.689-.175 1.074.073 2.1.683 2.817.56.659 1.358.933 2.31.933 1.633 0 2.538-1.05 2.538-1.05l-.081.51a.32.32 0 00.315.37h1.652a.532.532 0 00.525-.45l.992-6.278a.32.32 0 00-.316-.368zm-2.557 3.57c-.176 1.047-1.008 1.75-2.07 1.75-.53 0-.957-.17-1.23-.494-.272-.321-.374-.779-.289-1.289.167-1.038 1.011-1.765 2.056-1.765.52 0 .944.173 1.223.5.28.33.391.79.31 1.297zm4.719-6.844l-1.572 10.001a.319.319 0 00.315.369h1.58a.53.53 0 00.526-.45l1.55-9.82A.32.32 0 0049.45 1h-1.77a.32.32 0 00-.314.27z" fill="#179BD7" transform="translate(30 33)"/></g></g></g></g></svg>