<svg width="50" height="21" xmlns="http://www.w3.org/2000/svg"><g id="🖥-UI" stroke="none" stroke-width="1" fill="none" fill-rule="evenodd"><g id="Settings---Payment-Gateway" transform="translate(-350 -192)" fill="#6772E5" fill-rule="nonzero"><g id="Stripe" transform="translate(320 153)"><g id="stripe-seeklogo.com" transform="translate(30 39)"><path d="M3.514 8.192c0-.544.444-.753 1.18-.753 1.056 0 2.39.32 3.445.893v-3.28a9.12 9.12 0 00-3.445-.642C1.875 4.41 0 5.89 0 8.36c0 3.852 5.278 3.238 5.278 4.899 0 .642-.556.85-1.334.85-1.152 0-2.625-.474-3.791-1.116v3.322a9.588 9.588 0 003.791.796c2.89 0 4.875-1.438 4.875-3.936-.013-4.16-5.305-3.42-5.305-4.983zm9.389-6.573l-3.39.726L9.5 13.524c0 2.065 1.542 3.587 3.597 3.587 1.14 0 1.972-.21 2.43-.461v-2.833c-.444.181-2.638.823-2.638-1.242V7.62h2.639V4.647h-2.64l.015-3.028zm6.944 4.061l-.222-1.033h-3V16.86h3.472V8.583c.82-1.074 2.209-.88 2.64-.726v-3.21c-.445-.167-2.07-.474-2.89 1.033zm3.736-1.033h3.486V16.86h-3.486V4.647zm0-1.06l3.486-.754V0l-3.486.74v2.847zm10.736.823c-1.36 0-2.236.642-2.722 1.089l-.18-.865H28.36v16.273l3.472-.74.014-3.95c.5.363 1.236.88 2.459.88 2.486 0 4.75-2.01 4.75-6.434-.014-4.048-2.306-6.253-4.737-6.253zm-.833 9.616c-.82 0-1.305-.293-1.639-.656l-.014-5.178c.361-.404.861-.683 1.653-.683 1.264 0 2.139 1.423 2.139 3.251 0 1.87-.861 3.266-2.139 3.266zM50 10.802c0-3.573-1.722-6.392-5.014-6.392-3.305 0-5.305 2.82-5.305 6.364 0 4.201 2.36 6.323 5.75 6.323 1.652 0 2.902-.377 3.847-.908V13.4c-.945.474-2.028.767-3.403.767-1.347 0-2.542-.475-2.694-2.122h6.791c0-.181.028-.907.028-1.242zm-6.861-1.326c0-1.577.958-2.233 1.833-2.233.847 0 1.75.656 1.75 2.233H43.14z" id="Shape"/></g></g></g></g></svg>