<?xml version="1.0" encoding="UTF-8"?>
<svg width="24px" height="24px" viewBox="0 0 24 24" version="1.1" xmlns="http://www.w3.org/2000/svg" xmlns:xlink="http://www.w3.org/1999/xlink">
    <!-- Generator: Sketch 52.6 (67491) - http://www.bohemiancoding.com/sketch -->
    <title>india-flag-square-icon-32</title>
    <desc>Created with Sketch.</desc>
    <defs>
        <rect id="path-1" x="0" y="0" width="24" height="24" rx="2"></rect>
    </defs>
    <g id="Symbols" stroke="none" stroke-width="1" fill="none" fill-rule="evenodd">
        <g id="-Avatars-/-Country-/-US">
            <g id="india-flag-square-icon-32">
                <mask id="mask-2" fill="white">
                    <use xlink:href="#path-1"></use>
                </mask>
                <use id="Mask" fill="#D8D8D8" xlink:href="#path-1"></use>
                <g id="united-states-of-america-flag-square" mask="url(#mask-2)">
                    <g id="Group-11">
                        <polygon id="Fill-1" fill="#FFFFFE" points="0 23.9952 24 23.9952 24 0 0 0"></polygon>
                        <polygon id="Fill-3" fill="#A02735" points="0 1.84616 24 1.84616 24 0 0 0"></polygon>
                        <polygon id="Fill-4" fill="#A02735" points="0 5.53848 24 5.53848 24 3.69232 0 3.69232"></polygon>
                        <polygon id="Fill-5" fill="#A02735" points="0 9.2308 24 9.2308 24 7.38464 0 7.38464"></polygon>
                        <polygon id="Fill-6" fill="#A02735" points="0 12.92304 24 12.92304 24 11.07696 0 11.07696"></polygon>
                        <polygon id="Fill-7" fill="#A02735" points="0 16.61536 24 16.61536 24 14.7692 0 14.7692"></polygon>
                        <polygon id="Fill-8" fill="#A02735" points="0 20.30768 24 20.30768 24 18.46152 0 18.46152"></polygon>
                        <polygon id="Fill-9" fill="#A02735" points="0 23.9952 24 23.9952 24 22.15384 0 22.15384"></polygon>
                        <polygon id="Fill-10" fill="#37355C" points="0 12.92304 18.24 12.92304 18.24 0 0 0"></polygon>
                    </g>
                    <polyline id="Fill-12" fill="#FFFFFE" points="0.85696 1.04912 1.29144 1.3648 1.12544 1.8756 1.56 1.55992 1.99448 1.8756 1.82848 1.3648 2.26296 1.04912 1.72592 1.04912 1.56 0.53832 1.394 1.04912 0.85696 1.04912"></polyline>
                    <polyline id="Fill-13" fill="#FFFFFE" points="3.88096 1.04912 4.31544 1.3648 4.14944 1.8756 4.584 1.55992 5.01848 1.8756 4.85248 1.3648 5.28696 1.04912 4.74992 1.04912 4.58392 0.53832 4.418 1.04912 3.88096 1.04912"></polyline>
                    <polyline id="Fill-14" fill="#FFFFFE" points="6.90496 1.04912 7.33944 1.3648 7.17344 1.8756 7.608 1.55992 8.04248 1.8756 7.87648 1.3648 8.31096 1.04912 7.77392 1.04912 7.608 0.53832 7.442 1.04912 6.90496 1.04912"></polyline>
                    <polyline id="Fill-15" fill="#FFFFFE" points="9.92896 1.04912 10.36344 1.3648 10.19752 1.8756 10.632 1.55992 11.06648 1.8756 10.90056 1.3648 11.33504 1.04912 10.79792 1.04912 10.632 0.53832 10.466 1.04912 9.92896 1.04912"></polyline>
                    <polyline id="Fill-16" fill="#FFFFFE" points="12.95296 1.04912 13.38744 1.3648 13.22144 1.8756 13.656 1.55992 14.09048 1.8756 13.92448 1.3648 14.35896 1.04912 13.82192 1.04912 13.656 0.53832 13.49 1.04912 12.95296 1.04912"></polyline>
                    <polyline id="Fill-17" fill="#FFFFFE" points="15.97696 1.04912 16.41144 1.3648 16.24544 1.8756 16.67992 1.55992 17.11448 1.8756 16.94848 1.3648 17.38296 1.04912 16.84592 1.04912 16.67992 0.53832 16.514 1.04912 15.97696 1.04912"></polyline>
                    <polyline id="Fill-18" fill="#FFFFFE" points="2.36896 2.34512 2.80344 2.6608 2.63744 3.1716 3.07192 2.85592 3.50648 3.1716 3.34048 2.6608 3.77496 2.34512 3.23792 2.34512 3.07192 1.83432 2.906 2.34512 2.36896 2.34512"></polyline>
                    <polyline id="Fill-19" fill="#FFFFFE" points="5.39296 2.34512 5.82744 2.6608 5.66144 3.1716 6.096 2.85592 6.53048 3.1716 6.36448 2.6608 6.79896 2.34512 6.26192 2.34512 6.09592 1.83432 5.93 2.34512 5.39296 2.34512"></polyline>
                    <polyline id="Fill-20" fill="#FFFFFE" points="8.41696 2.34512 8.85144 2.6608 8.68552 3.1716 9.12 2.85592 9.55448 3.1716 9.38848 2.6608 9.82296 2.34512 9.28592 2.34512 9.12 1.83432 8.954 2.34512 8.41696 2.34512"></polyline>
                    <polyline id="Fill-21" fill="#FFFFFE" points="11.44096 2.34512 11.87544 2.6608 11.70944 3.1716 12.14392 2.85592 12.57848 3.1716 12.41248 2.6608 12.84696 2.34512 12.30992 2.34512 12.14392 1.83432 11.978 2.34512 11.44096 2.34512"></polyline>
                    <polyline id="Fill-22" fill="#FFFFFE" points="14.46496 2.34512 14.89944 2.6608 14.73344 3.1716 15.16792 2.85592 15.6024 3.1716 15.43648 2.6608 15.87096 2.34512 15.33392 2.34512 15.16792 1.83432 15.002 2.34512 14.46496 2.34512"></polyline>
                    <polyline id="Fill-23" fill="#FFFFFE" points="0.85696 3.6412 1.29144 3.95688 1.12544 4.4676 1.56 4.15192 1.99448 4.4676 1.82848 3.9568 2.26296 3.6412 1.72592 3.6412 1.56 3.1304 1.394 3.6412 0.85696 3.6412"></polyline>
                    <polyline id="Fill-24" fill="#FFFFFE" points="3.88096 3.6412 4.31544 3.95688 4.14944 4.4676 4.584 4.15192 5.01848 4.4676 4.85248 3.9568 5.28696 3.6412 4.74992 3.6412 4.58392 3.1304 4.418 3.6412 3.88096 3.6412"></polyline>
                    <polyline id="Fill-25" fill="#FFFFFE" points="6.90496 3.6412 7.33944 3.95688 7.17344 4.4676 7.608 4.15192 8.04248 4.4676 7.87648 3.9568 8.31096 3.6412 7.77392 3.6412 7.608 3.1304 7.442 3.6412 6.90496 3.6412"></polyline>
                    <polyline id="Fill-26" fill="#FFFFFE" points="9.92896 3.6412 10.36344 3.95688 10.19752 4.4676 10.632 4.15192 11.06648 4.4676 10.90056 3.9568 11.33504 3.6412 10.79792 3.6412 10.632 3.1304 10.466 3.6412 9.92896 3.6412"></polyline>
                    <polyline id="Fill-27" fill="#FFFFFE" points="12.95296 3.6412 13.38744 3.95688 13.22144 4.4676 13.656 4.15192 14.09048 4.4676 13.92448 3.9568 14.35896 3.6412 13.82192 3.6412 13.656 3.1304 13.49 3.6412 12.95296 3.6412"></polyline>
                    <polyline id="Fill-28" fill="#FFFFFE" points="15.97696 3.6412 16.41144 3.95688 16.24544 4.4676 16.67992 4.15192 17.11448 4.4676 16.94848 3.9568 17.38296 3.6412 16.84592 3.6412 16.67992 3.1304 16.514 3.6412 15.97696 3.6412"></polyline>
                    <polyline id="Fill-29" fill="#FFFFFE" points="2.40624 4.94144 2.84072 5.25712 2.6748 5.76792 3.10928 5.45224 3.54376 5.76792 3.37776 5.25712 3.81224 4.94144 3.2752 4.94144 3.10928 4.43064 2.94328 4.94144 2.40624 4.94144"></polyline>
                    <polyline id="Fill-30" fill="#FFFFFE" points="5.43024 4.94144 5.86472 5.25712 5.6988 5.76792 6.13328 5.45224 6.56776 5.76792 6.40176 5.25712 6.83632 4.94144 6.29928 4.94144 6.13328 4.43064 5.96728 4.94144 5.43024 4.94144"></polyline>
                    <polyline id="Fill-31" fill="#FFFFFE" points="8.45424 4.94144 8.88872 5.25712 8.7228 5.76792 9.15728 5.45224 9.59176 5.76792 9.42584 5.25712 9.86032 4.94144 9.32328 4.94144 9.15728 4.43064 8.99136 4.94144 8.45424 4.94144"></polyline>
                    <polyline id="Fill-32" fill="#FFFFFE" points="11.47824 4.94144 11.91272 5.25712 11.7468 5.76792 12.18128 5.45224 12.61576 5.76792 12.44976 5.25712 12.88432 4.94144 12.3472 4.94144 12.18128 4.43064 12.01528 4.94144 11.47824 4.94144"></polyline>
                    <polyline id="Fill-33" fill="#FFFFFE" points="14.50224 4.94144 14.93672 5.25712 14.77072 5.76792 15.20528 5.45224 15.63976 5.76792 15.47376 5.25712 15.90824 4.94144 15.3712 4.94144 15.20528 4.43064 15.03928 4.94144 14.50224 4.94144"></polyline>
                    <polyline id="Fill-34" fill="#FFFFFE" points="0.9028 6.22656 1.33736 6.54224 1.17136 7.05304 1.60584 6.73736 2.04032 7.05304 1.8744 6.54224 2.30888 6.22656 1.77184 6.22656 1.60584 5.71576 1.43992 6.22656 0.9028 6.22656"></polyline>
                    <polyline id="Fill-35" fill="#FFFFFE" points="3.9268 6.22656 4.36128 6.54224 4.19536 7.05304 4.62984 6.73736 5.06432 7.05304 4.8984 6.54224 5.33288 6.22656 4.79584 6.22656 4.62984 5.71576 4.46384 6.22656 3.9268 6.22656"></polyline>
                    <polyline id="Fill-36" fill="#FFFFFE" points="6.9508 6.22656 7.38536 6.54224 7.21936 7.05304 7.65384 6.73736 8.08832 7.05304 7.9224 6.54224 8.35688 6.22656 7.81984 6.22656 7.65384 5.71576 7.48792 6.22656 6.9508 6.22656"></polyline>
                    <polyline id="Fill-37" fill="#FFFFFE" points="9.97488 6.22656 10.40936 6.54224 10.24336 7.05304 10.67784 6.73736 11.1124 7.05304 10.9464 6.54224 11.38088 6.22656 10.84384 6.22656 10.67784 5.71576 10.51192 6.22656 9.97488 6.22656"></polyline>
                    <polyline id="Fill-38" fill="#FFFFFE" points="12.9988 6.22656 13.43328 6.54224 13.26736 7.05304 13.70184 6.73736 14.13632 7.05304 13.9704 6.54224 14.40488 6.22656 13.86784 6.22656 13.70184 5.71576 13.53592 6.22656 12.9988 6.22656"></polyline>
                    <polyline id="Fill-39" fill="#FFFFFE" points="16.0228 6.22656 16.45728 6.54224 16.29136 7.05304 16.72584 6.73736 17.16032 7.05304 16.9944 6.54224 17.42888 6.22656 16.89184 6.22656 16.72584 5.71576 16.55984 6.22656 16.0228 6.22656"></polyline>
                    <polyline id="Fill-40" fill="#FFFFFE" points="0.9312 8.7776 1.36568 9.09328 1.19968 9.60408 1.63416 9.2884 2.06872 9.60408 1.90272 9.09328 2.3372 8.7776 1.80016 8.7776 1.63416 8.2668 1.46824 8.7776 0.9312 8.7776"></polyline>
                    <polyline id="Fill-41" fill="#FFFFFE" points="3.9552 8.7776 4.38968 9.09328 4.22368 9.60408 4.65816 9.2884 5.09264 9.60408 4.92672 9.09328 5.3612 8.7776 4.82416 8.7776 4.65816 8.2668 4.49224 8.7776 3.9552 8.7776"></polyline>
                    <polyline id="Fill-42" fill="#FFFFFE" points="6.9792 8.7776 7.41368 9.09328 7.24768 9.60408 7.68216 9.2884 8.11672 9.60408 7.95072 9.09328 8.3852 8.7776 7.84816 8.7776 7.68216 8.2668 7.51624 8.7776 6.9792 8.7776"></polyline>
                    <polyline id="Fill-43" fill="#FFFFFE" points="10.0032 8.7776 10.43768 9.09328 10.27168 9.60408 10.70624 9.2884 11.14072 9.60408 10.97472 9.09328 11.4092 8.7776 10.87216 8.7776 10.70624 8.2668 10.54024 8.7776 10.0032 8.7776"></polyline>
                    <polyline id="Fill-44" fill="#FFFFFE" points="13.0272 8.7776 13.46168 9.09328 13.29568 9.60408 13.73016 9.2884 14.16472 9.60408 13.99872 9.09328 14.4332 8.7776 13.89616 8.7776 13.73016 8.2668 13.56424 8.7776 13.0272 8.7776"></polyline>
                    <polyline id="Fill-45" fill="#FFFFFE" points="16.05112 8.7776 16.4856 9.09328 16.31968 9.60408 16.75416 9.2884 17.18864 9.60408 17.02272 9.09328 17.4572 8.7776 16.92016 8.7776 16.75416 8.2668 16.58824 8.7776 16.05112 8.7776"></polyline>
                    <polyline id="Fill-46" fill="#FFFFFE" points="0.89424 11.35856 1.32872 11.67424 1.1628 12.18504 1.59728 11.86936 2.03176 12.18504 1.86576 11.67424 2.30024 11.35856 1.7632 11.35856 1.59728 10.84776 1.43128 11.35856 0.89424 11.35856"></polyline>
                    <polyline id="Fill-47" fill="#FFFFFE" points="3.91824 11.35856 4.35272 11.67424 4.18672 12.18504 4.62128 11.86936 5.05576 12.18504 4.88976 11.67424 5.32424 11.35856 4.7872 11.35856 4.62128 10.84776 4.45528 11.35856 3.91824 11.35856"></polyline>
                    <polyline id="Fill-48" fill="#FFFFFE" points="6.94224 11.35856 7.37672 11.67424 7.21072 12.18504 7.64528 11.86936 8.07976 12.18504 7.91376 11.67424 8.34824 11.35856 7.8112 11.35856 7.64528 10.84776 7.47928 11.35856 6.94224 11.35856"></polyline>
                    <polyline id="Fill-49" fill="#FFFFFE" points="9.96624 11.35856 10.40072 11.67424 10.2348 12.18504 10.66928 11.86936 11.10376 12.18504 10.93784 11.67424 11.37232 11.35856 10.8352 11.35856 10.66928 10.84776 10.50328 11.35856 9.96624 11.35856"></polyline>
                    <polyline id="Fill-50" fill="#FFFFFE" points="12.99024 11.35856 13.42472 11.67424 13.25872 12.18504 13.69328 11.86936 14.12776 12.18504 13.96176 11.67424 14.39624 11.35856 13.8592 11.35856 13.69328 10.84776 13.52728 11.35856 12.99024 11.35856"></polyline>
                    <polyline id="Fill-51" fill="#FFFFFE" points="16.01424 11.35856 16.44872 11.67424 16.28272 12.18504 16.7172 11.86936 17.15176 12.18504 16.98576 11.67424 17.42024 11.35856 16.8832 11.35856 16.7172 10.84776 16.55128 11.35856 16.01424 11.35856"></polyline>
                    <polyline id="Fill-52" fill="#FFFFFE" points="2.4152 7.48928 2.84968 7.80496 2.68376 8.31576 3.11824 8.00008 3.55272 8.31576 3.3868 7.80496 3.82128 7.48928 3.28416 7.48928 3.11824 6.97848 2.95224 7.48928 2.4152 7.48928"></polyline>
                    <polyline id="Fill-53" fill="#FFFFFE" points="5.4392 7.48928 5.87368 7.80496 5.70776 8.31576 6.14224 8.00008 6.57672 8.31576 6.4108 7.80496 6.84528 7.48928 6.30824 7.48928 6.14224 6.97848 5.97624 7.48928 5.4392 7.48928"></polyline>
                    <polyline id="Fill-54" fill="#FFFFFE" points="8.46328 7.48928 8.89776 7.80496 8.73176 8.31576 9.16624 8.00008 9.6008 8.31576 9.4348 7.80496 9.86928 7.48928 9.33224 7.48928 9.16624 6.97848 9.00032 7.48928 8.46328 7.48928"></polyline>
                    <polyline id="Fill-55" fill="#FFFFFE" points="11.4872 7.48928 11.92168 7.80496 11.75576 8.31576 12.19024 8.00008 12.62472 8.31576 12.4588 7.80496 12.89328 7.48928 12.35624 7.48928 12.19024 6.97848 12.02424 7.48928 11.4872 7.48928"></polyline>
                    <polyline id="Fill-56" fill="#FFFFFE" points="14.5112 7.48928 14.94568 7.80496 14.77976 8.31576 15.21424 8.00008 15.64872 8.31576 15.48272 7.80496 15.91728 7.48928 15.38016 7.48928 15.21424 6.97848 15.04824 7.48928 14.5112 7.48928"></polyline>
                    <polyline id="Fill-57" fill="#FFFFFE" points="2.40624 10.06624 2.84072 10.38192 2.6748 10.89272 3.10928 10.57704 3.54376 10.89272 3.37784 10.38192 3.81232 10.06624 3.27528 10.06624 3.10928 9.55544 2.94328 10.06624 2.40624 10.06624"></polyline>
                    <polyline id="Fill-58" fill="#FFFFFE" points="5.43024 10.06624 5.86472 10.38192 5.6988 10.89272 6.13328 10.57704 6.56776 10.89272 6.40184 10.38192 6.83632 10.06624 6.29928 10.06624 6.13328 9.55544 5.96736 10.06624 5.43024 10.06624"></polyline>
                    <polyline id="Fill-59" fill="#FFFFFE" points="8.45432 10.06624 8.8888 10.38192 8.7228 10.89272 9.15728 10.57704 9.59184 10.89272 9.42584 10.38192 9.86032 10.06624 9.32328 10.06624 9.15728 9.55544 8.99136 10.06624 8.45432 10.06624"></polyline>
                    <polyline id="Fill-60" fill="#FFFFFE" points="11.47824 10.06624 11.91272 10.38192 11.7468 10.89272 12.18128 10.57704 12.61576 10.89272 12.44984 10.38192 12.88432 10.06624 12.34728 10.06624 12.18128 9.55544 12.01536 10.06624 11.47824 10.06624"></polyline>
                    <polyline id="Fill-61" fill="#FFFFFE" points="14.50224 10.06624 14.93672 10.38192 14.7708 10.89272 15.20528 10.57704 15.63976 10.89272 15.47384 10.38192 15.90832 10.06624 15.3712 10.06624 15.20528 9.55544 15.03928 10.06624 14.50224 10.06624"></polyline>
                </g>
            </g>
        </g>
    </g>
</svg>